<?xml version="1.0" encoding="UTF-8"?><svg id="Layer_1" xmlns="http://www.w3.org/2000/svg" viewBox="0 0 435 550"><defs><style>.cls-1{fill:#fff;}</style></defs><g><path class="cls-1" d="M239.0712890625,23.18310546875l-8.240234375-10.99462890625h30.673828125c4.455078125,0,8.30078125,.73291015625,11.537109375,2.19873046875,3.2353515625,1.4658203125,5.69140625,3.49755859375,7.37109375,6.0927734375,1.677734375,2.59716796875,2.517578125,5.57470703125,2.517578125,8.93310546875,0,3.4814453125-.9013671875,6.55078125-2.701171875,9.2080078125-1.80078125,2.65673828125-4.41015625,4.658203125-7.828125,6.0009765625,4.5166015625,1.09912109375,8.01171875,3.1767578125,10.484375,6.22998046875,2.4716796875,3.05517578125,3.7080078125,6.75,3.7080078125,11.0859375,0,3.48193359375-.83984375,6.5966796875-2.5185546875,9.34521484375-1.6787109375,2.7490234375-4.1357421875,4.8876953125-7.3701171875,6.41357421875-3.236328125,1.52734375-7.08203125,2.29052734375-11.537109375,2.29052734375h-34.3369140625l8.240234375-10.99462890625V23.18310546875Zm28.8427734375,16.44580078125c1.8916015625-2.77880859375,2.8388671875-6.1845703125,2.8388671875-10.2158203125s-.9609375-7.451171875-2.8837890625-10.26171875c-1.9228515625-2.80859375-4.77734375-4.21435546875-8.5615234375-4.21435546875h-6.5009765625v28.8603515625h6.5009765625c3.845703125,0,6.7138671875-1.388671875,8.6064453125-4.16845703125Zm3.6171875,33.166015625c1.9228515625-2.9619140625,2.884765625-6.58056640625,2.884765625-10.85693359375,0-4.2744140625-.9619140625-7.9091796875-2.884765625-10.90283203125-1.9228515625-2.99169921875-4.77734375-4.4892578125-8.5615234375-4.4892578125h-10.1630859375v30.69287109375h10.1630859375c3.7841796875,0,6.638671875-1.48046875,8.5615234375-4.44384765625Z"/><path class="cls-1" d="M241.4521484375,160.61279296875v-45.8095703125l-8.240234375-10.99462890625h30.1240234375l-8.1484375,10.90283203125v54.1474609375h6.5009765625l24.0810546875-14.01806640625-1.7392578125,16.7666015625h-50.818359375l8.240234375-10.99462890625Z"/><path class="cls-1" d="M239.529296875,259.8837890625c-5.3427734375-3.1455078125-9.4931640625-7.40625-12.453125-12.78125-2.9619140625-5.3740234375-4.44140625-11.2998046875-4.44140625-17.7744140625,0-6.4736328125,1.4794921875-12.39892578125,4.44140625-17.7744140625,2.9599609375-5.3740234375,7.1103515625-9.63427734375,12.453125-12.78076171875,5.3408203125-3.14501953125,11.4599609375-4.71875,18.3583984375-4.71875,6.8974609375,0,13.0166015625,1.5576171875,18.3583984375,4.6728515625,5.3408203125,3.115234375,9.4912109375,7.36083984375,12.453125,12.7353515625,2.9599609375,5.37548828125,4.4404296875,11.33056640625,4.4404296875,17.86572265625,0,6.474609375-1.48046875,12.400390625-4.4404296875,17.7744140625-2.9619140625,5.375-7.1123046875,9.6357421875-12.453125,12.78125-5.341796875,3.146484375-11.4609375,4.7177734375-18.3583984375,4.7177734375-6.8984375,0-13.017578125-1.5712890625-18.3583984375-4.7177734375Zm36.16796875-39.30517578125c-2.1064453125-6.50537109375-5.1279296875-12.04833984375-9.0654296875-16.62939453125-3.9365234375-4.5810546875-8.5009765625-6.87158203125-13.6884765625-6.87158203125-3.1748046875,0-5.9833984375,.96240234375-8.423828125,2.88623046875-2.4423828125,1.923828125-4.3193359375,4.642578125-5.6318359375,8.154296875-1.3134765625,3.51318359375-1.96875,7.55859375-1.96875,12.1396484375,0,5.37548828125,1.0537109375,11.3154296875,3.1591796875,17.8203125,2.1064453125,6.5048828125,5.1279296875,12.0478515625,9.0654296875,16.62890625,3.9365234375,4.5810546875,8.4990234375,6.87109375,13.6884765625,6.87109375,3.173828125,0,5.9814453125-.9619140625,8.423828125-2.8857421875,2.44140625-1.923828125,4.318359375-4.6416015625,5.6318359375-8.154296875,1.3115234375-3.51171875,1.96875-7.55859375,1.96875-12.1396484375,0-5.3740234375-1.0537109375-11.31494140625-3.1591796875-17.81982421875Z"/><path class="cls-1" d="M235.0439453125,343.853515625v-45.810546875l-8.2412109375-10.994140625h19.228515625l-.3662109375,.5498046875,32.322265625,50.390625v-39.9462890625l-8.240234375-10.994140625h19.228515625l-8.2412109375,10.994140625v44.2529296875l8.0576171875,12.5517578125h-16.755859375l-34.2451171875-53.4140625v42.419921875l8.240234375,10.994140625h-19.228515625l8.2412109375-10.994140625Z"/><path class="cls-1" d="M234.6767578125,389.6630859375l-8.240234375-10.994140625h29.1171875c6.958984375,0,13.1083984375,1.4658203125,18.4501953125,4.3974609375,5.3408203125,2.9326171875,9.4775390625,6.9638671875,12.4072265625,12.09375,2.9296875,5.130859375,4.3955078125,10.9345703125,4.3955078125,17.408203125,0,6.474609375-1.4658203125,12.27734375-4.3955078125,17.408203125-2.9296875,5.1298828125-7.06640625,9.1611328125-12.4072265625,12.09375-5.341796875,2.931640625-11.4912109375,4.3974609375-18.4501953125,4.3974609375h-29.1171875l8.240234375-10.994140625v-45.810546875Zm32.001953125,49.841796875c3.021484375-2.80859375,5.279296875-6.5654296875,6.7763671875-11.26953125,1.4951171875-4.703125,2.2431640625-9.9248046875,2.2431640625-15.6669921875,0-5.740234375-.748046875-10.962890625-2.2431640625-15.6669921875-1.4970703125-4.703125-3.7548828125-8.458984375-6.7763671875-11.26953125-3.021484375-2.80859375-6.7294921875-4.2138671875-11.125-4.2138671875h-7.1416015625v62.30078125h7.1416015625c4.3955078125,0,8.103515625-1.404296875,11.125-4.2138671875Z"/><path class="cls-1" d="M240.673828125,527.09375v-45.810546875l-8.240234375-10.994140625h50.818359375l1.7392578125,16.7666015625-24.9970703125-14.017578125h-5.5849609375v28.8603515625h5.5849609375l17.3056640625-9.9873046875v22.7216796875l-17.3056640625-9.986328125h-5.5849609375v30.6923828125h6.5009765625l24.0810546875-14.017578125-1.7392578125,16.7666015625h-50.818359375l8.240234375-10.994140625Z"/></g><g><path class="cls-1" d="M15.068359375,432.9345703125c2.919921875,3.203125,5.93359375,6.09375,9.041015625,8.673828125,3.1064453125,2.580078125,5.623046875,4.0888671875,7.5498046875,4.5224609375,2.361328125,0,4.1318359375-.8857421875,5.3134765625-2.6572265625,1.1796875-1.7724609375,1.7705078125-4.181640625,1.7705078125-7.228515625,0-2.23828125-.69921875-4.3671875-2.0966796875-6.388671875-1.3984375-2.01953125-3.138671875-3.9013671875-5.2197265625-5.642578125-2.0830078125-1.740234375-4.86328125-3.8544921875-8.3427734375-6.341796875-4.2265625-3.0458984375-7.58203125-5.642578125-10.06640625-7.7880859375-2.486328125-2.14453125-4.61328125-4.630859375-6.384765625-7.4609375-1.7705078125-2.828125-2.65625-5.8896484375-2.65625-9.1865234375,0-5.22265625,1.9111328125-9.248046875,5.732421875-12.078125,3.8212890625-2.828125,9.1484375-4.2431640625,15.9853515625-4.2431640625,5.2802734375,0,10.1904296875,.529296875,14.7265625,1.5859375,4.53515625,1.0576171875,8.2958984375,2.3310546875,11.2783203125,3.8232421875l-6.431640625,18.373046875c-1.2431640625-1.9892578125-3.2314453125-4.583984375-5.96484375-7.787109375-2.7353515625-3.2021484375-5.515625-6.0927734375-8.3427734375-8.673828125-2.828125-2.5791015625-5.048828125-4.087890625-6.6640625-4.5234375-1.9267578125,0-3.37109375,.83984375-4.333984375,2.5185546875-.9638671875,1.6787109375-1.4453125,3.8232421875-1.4453125,6.4345703125,0,2.052734375,.66796875,4.04296875,2.0048828125,5.9697265625,1.3349609375,1.927734375,3.0126953125,3.74609375,5.033203125,5.4560546875,2.0185546875,1.7099609375,4.7373046875,3.80859375,8.1552734375,6.294921875,4.224609375,3.109375,7.6435546875,5.7822265625,10.2529296875,8.0205078125,2.6103515625,2.23828125,4.814453125,4.8037109375,6.6181640625,7.6943359375,1.8017578125,2.8916015625,2.703125,6.015625,2.703125,9.373046875,0,11.50390625-7.3642578125,17.2548828125-22.0908203125,17.2548828125-6.2138671875,0-11.8232421875-.529296875-16.82421875-1.5859375-5.0029296875-1.056640625-8.994140625-2.33203125-11.9775390625-3.82421875l6.431640625-18.373046875c1.2421875,1.9912109375,3.3232421875,4.5859375,6.2451171875,7.7880859375Z"/><path class="cls-1" d="M68.568359375,378.5146484375h60.5859375l1.771484375,17.0673828125-24.5146484375-14.26953125h-.55859375v55.119140625l8.294921875,11.0986328125h-30.6650390625l8.388671875-11.19140625v-55.0263671875h-.5595703125l-24.513671875,14.26953125,1.7705078125-17.0673828125Z"/><path class="cls-1" d="M165.8779296875,389.7060546875v40.197265625c0,4.849609375,1.1650390625,8.7666015625,3.4951171875,11.7509765625s5.9189453125,4.4765625,10.765625,4.4765625c3.1064453125,0,5.9189453125-.7294921875,8.435546875-2.19140625,2.5166015625-1.4599609375,4.48828125-3.4189453125,5.91796875-5.8759765625,1.4287109375-2.455078125,2.14453125-5.17578125,2.14453125-8.16015625v-40.197265625l-8.388671875-11.19140625h19.5732421875l-8.388671875,11.19140625v40.197265625c0,3.6064453125-.7919921875,6.83984375-2.376953125,9.69921875-1.583984375,2.8603515625-3.9775390625,5.1298828125-7.1767578125,6.80859375-3.201171875,1.6787109375-7.099609375,2.5185546875-11.6982421875,2.5185546875-5.654296875,0-10.455078125-.83984375-14.400390625-2.5185546875-3.9462890625-1.6787109375-6.9130859375-3.9482421875-8.9013671875-6.80859375-1.9892578125-2.859375-2.982421875-6.0927734375-2.982421875-9.69921875v-40.197265625l-8.388671875-11.19140625h30.7587890625l-8.388671875,11.19140625Z"/><path class="cls-1" d="M314.916015625,436.3388671875v-46.6328125l-8.388671875-11.19140625h30.7587890625l-8.388671875,11.19140625v46.6328125l8.388671875,11.19140625h-30.7587890625l8.388671875-11.19140625Z"/><path class="cls-1" d="M368.8359375,444.1259765625c-5.4375-3.201171875-9.6630859375-7.5380859375-12.67578125-13.0107421875-3.0146484375-5.4697265625-4.521484375-11.501953125-4.521484375-18.0927734375,0-6.58984375,1.5068359375-12.62109375,4.521484375-18.09375,3.0126953125-5.470703125,7.23828125-9.8076171875,12.67578125-13.0107421875,5.4365234375-3.201171875,11.666015625-4.802734375,18.6884765625-4.802734375,7.021484375,0,13.25,1.5859375,18.6884765625,4.7568359375,5.4365234375,3.1708984375,9.6611328125,7.4931640625,12.6767578125,12.9638671875,3.0126953125,5.4716796875,4.5205078125,11.5341796875,4.5205078125,18.1865234375,0,6.5908203125-1.5078125,12.623046875-4.5205078125,18.0927734375-3.015625,5.47265625-7.240234375,9.8095703125-12.6767578125,13.0107421875-5.4384765625,3.203125-11.6669921875,4.8037109375-18.6884765625,4.8037109375-7.0224609375,0-13.251953125-1.6005859375-18.6884765625-4.8037109375Zm36.8173828125-40.0107421875c-2.1435546875-6.6220703125-5.2197265625-12.263671875-9.2275390625-16.927734375-4.0078125-4.6630859375-8.6533203125-6.994140625-13.9345703125-6.994140625-3.2314453125,0-6.0908203125,.978515625-8.5751953125,2.9375-2.486328125,1.958984375-4.396484375,4.7255859375-5.732421875,8.30078125-1.3369140625,3.576171875-2.00390625,7.6943359375-2.00390625,12.357421875,0,5.4716796875,1.072265625,11.5185546875,3.2158203125,18.1396484375,2.1435546875,6.6220703125,5.2197265625,12.2646484375,9.2275390625,16.927734375s8.65234375,6.9951171875,13.9345703125,6.9951171875c3.23046875,0,6.0888671875-.9794921875,8.5751953125-2.9375,2.484375-1.958984375,4.3955078125-4.724609375,5.732421875-8.30078125,1.3359375-3.5751953125,2.00390625-7.6943359375,2.00390625-12.357421875,0-5.470703125-1.072265625-11.5185546875-3.2158203125-18.140625Z"/></g></svg>